<mxfile host="app.diagrams.net" modified="2024-06-17T06:46:55.229Z" agent="Mozilla/5.0 (X11; Linux x86_64) AppleWebKit/537.36 (KHTML, like Gecko) Chrome/125.0.0.0 Safari/537.36" version="24.5.4" etag="ikvuguMlHjvZ3oisC6xt" type="github">
  <diagram name="Page-1" id="pKkCE5aCtaSLWgjM1sNF">
    <mxGraphModel>
      <root>
        <mxCell id="0" />
        <mxCell id="1" parent="0" />
      </root>
    </mxGraphModel>
  </diagram>
</mxfile>
